<svg height="100%" viewBox="-0.9140625 -69.421875 310.130859375 83.02734375" fill="none"
  xmlns="http://www.w3.org/2000/svg">
  <path d="M61-61L61-61Q61-61 62-60L62-60Q62-59 62-59L62-59Q61-55 60-52L60-52Q59-49 58-47L58-47L55-40Q50-27 44-15L44-15Q38-1 30 13L30 13Q30 13 29 14Q29 14 29 14L29 14Q28 13 29 11L29 11Q31 5 35-3L35-3L41-16L45-24L49-33Q52-38 53-41L53-41Q54-43 56-50L56-50Q58-55 59-59L59-59Q59-59 60-60L60-60Q60-60 60-60Q60-60 60-60L60-60Q60-61 61-61ZM60-69L60-69Q61-68 60-67L60-67Q60-67 54-63L54-63Q55-63 55-62L55-62Q55-56 49-42L49-42L46-33L42-25L38-17Q33-6 28 3L28 3Q23 12 22 13L22 13Q21 13 21 12L21 12Q21 12 21 11L21 11Q22 10 27 0L27 0L34-15L39-25L42-33Q45-38 46-43L46-43Q52-58 52-62L52-62L52-62L31-51Q26-49 23-47L23-47L14-43L6-40Q6-40 8-39Q10-39 12-39L12-39Q12-39 17-38L17-38Q18-38 23-37L23-37Q28-37 33-36L33-36Q38-35 42-33L42-33Q37-33 34-34L34-34Q31-34 27-34L27-34Q26-35 23-35Q20-35 18-36L18-36Q18-36 12-36L12-36Q9-37 6-37L6-37Q4-37 1-38L1-38Q-1-39-1-39L-1-39Q-1-40-0-41L-0-41Q1-41 1-41L1-41Q2-42 3-42L3-42Q4-42 5-43L5-43Q8-43 29-54L29-54Q34-56 43-61L43-61Q53-66 59-69L59-69Q60-70 60-69ZM126-51L126-51Q124-51 122-50L122-50Q120-49 118-47L118-47Q116-45 114-42L114-42Q112-39 111-36L111-36Q109-33 108-29L108-29Q106-25 105-22L105-22Q104-20 102-15L102-15L100-9L99-3Q102-3 107-8L107-8Q113-12 118-18L118-18Q123-24 126-31L126-31Q130-39 130-45L130-45Q130-51 126-51ZM95-4L95-4Q100-29 109-42L109-42Q117-55 125-55L125-55Q129-55 131-52L131-52Q134-49 134-45L134-45Q134-38 130-30L130-30Q126-21 121-15L121-15Q116-9 110-4Q103 0 98 0L98 0Q90 0 90-5L90-5Q90-7 91-7L91-7Q92-6 93-5L93-5Q95-4 95-4ZM161-52L161-52Q159-52 155-48Q150-44 146-40L146-40Q143-36 143-35L143-35Q143-35 142-34L142-34L142-34Q142-33 143-33L143-33Q143-33 143-33L143-33Q146-33 151-37L151-37Q156-40 161-44L161-44Q165-48 165-49L165-49Q165-51 164-51L164-51Q162-52 161-52ZM155-3L155-3Q155-2 153-2L153-2Q151-2 150-3L150-3Q149-4 147-7L147-7Q145-10 144-11L144-11Q141-15 136-20L136-20Q136-19 135-14L135-14Q134-11 133-8L133-8Q132-6 131-3L131-3Q131-2 131-1L131-1Q131-1 130-0L130-0Q130 0 129 0L129 0Q128-0 128-1Q128-2 128-3L128-3Q130-12 131-17L131-17Q133-23 136-30L136-30Q139-37 144-44L144-44Q149-50 154-54L154-54Q158-56 163-56L163-56Q165-56 168-55L168-55Q170-53 170-50L170-50Q170-47 167-44L167-44Q164-41 157-36L157-36Q154-35 150-32L150-32Q146-30 142-28L142-28Q140-27 140-26L140-26Q140-24 144-20L144-20L151-10Q155-5 155-3ZM189-53L189-53Q187-53 184-48L184-48Q181-44 178-39L178-39Q175-34 175-33L175-33Q175-31 177-31L177-31Q178-30 181-30L181-30Q185-30 188-35L188-35Q192-40 192-45L192-45Q192-47 191-50L191-50Q191-53 189-53ZM189-56L189-56Q191-56 193-55L193-55Q194-54 195-52L195-52Q195-51 196-48L196-48Q196-46 196-44L196-44Q196-40 194-36L194-36Q191-31 188-29L188-29Q185-26 182-26L182-26Q181-27 181-26L181-26Q180-26 180-27L180-27L179-27Q179-27 178-27L178-27Q178-27 178-27Q177-28 177-28L177-28Q185-21 185-16L185-16Q185-13 182-10L182-10Q181-7 178-5L178-5Q174-3 172-2L172-2Q169-0 167-0L167-0Q164-0 162-2L162-2Q159-4 159-7L159-7Q159-9 160-10L160-10Q161-11 162-11L162-11Q162-11 162-10L162-10Q163-10 163-9L163-9Q162-9 162-8L162-8Q162-8 162-8L162-8Q162-7 162-7L162-7Q162-6 163-5L163-5Q164-3 166-4L166-4Q168-4 172-6L172-6Q176-8 178-11L178-11Q181-13 181-15L181-15Q181-18 178-23L178-23Q175-28 173-29L173-29Q172-27 169-20L169-20Q167-13 167-10L167-10Q167-9 166-8L166-8Q165-6 164-6L164-6Q163-6 163-10L163-10Q163-13 165-20L165-20Q168-27 172-35L172-35Q175-44 180-50Q185-56 189-56ZM223-52L223-52Q221-52 217-48Q212-44 208-40L208-40Q204-36 204-35L204-35Q204-35 204-34L204-34L204-34Q204-33 204-33L204-33Q205-33 205-33L205-33Q208-33 213-37L213-37Q218-40 223-44L223-44Q227-48 227-49L227-49Q227-51 226-51L226-51Q224-52 223-52ZM217-3L217-3Q217-2 215-2L215-2Q213-2 212-3L212-3Q211-4 209-7L209-7Q207-10 206-11L206-11Q203-15 198-20L198-20Q198-19 197-14L197-14Q196-11 195-8L195-8Q194-6 193-3L193-3Q193-2 193-1L193-1Q193-1 192-0L192-0Q192 0 191 0L191 0Q190-0 190-1Q189-2 190-3L190-3Q192-12 193-17L193-17Q195-23 198-30L198-30Q201-37 206-44L206-44Q211-50 216-54L216-54Q220-56 225-56L225-56Q227-56 230-55L230-55Q232-53 232-50L232-50Q232-47 229-44L229-44Q225-41 219-36L219-36Q216-35 212-32L212-32Q208-30 204-28L204-28Q202-27 202-26L202-26Q202-24 206-20L206-20L213-10Q217-5 217-3ZM224-5L224-5Q225-6 226-7L226-7Q227-8 227-8L227-8Q229-8 228-5L228-5Q228-3 226-2L226-2Q225 0 223 0L223 0Q223 0 222-1L222-1Q221-1 222-2L222-2Q222-3 222-3L222-3Q222-4 223-4L223-4Q223-5 224-5ZM255-21L255-21Q254-21 247-15L247-15Q241-8 239-5L239-5Q237-2 236-2L236-2Q234-2 234-3L234-3Q234-4 237-8L237-8Q241-14 243-18L243-18Q246-23 246-26L246-26L246-27Q247-27 247-27L247-27L248-27Q248-27 248-28Q248-28 248-28L248-28Q248-28 249-28Q249-28 249-28Q249-28 249-28Q250-28 250-28L250-28Q250-28 250-27L250-27Q250-26 250-26L250-26Q249-24 249-24L249-24Q249-23 249-23Q249-22 248-22L248-22Q248-21 248-20L248-20Q250-21 252-23L252-23Q254-25 256-26L256-26Q257-27 259-27L259-27Q259-27 260-27L260-27Q260-26 260-26L260-26Q260-25 260-24L260-24Q260-24 260-23L260-23Q260-22 259-15L259-15Q257-9 255-4L255-4Q255-2 254-1L254-1Q253 0 252 0L252 0Q251 0 251-1L251-1Q251-1 251-2L251-2Q251-6 253-12L253-12Q255-17 256-21L256-21Q256-21 256-21L256-21Q256-21 255-21ZM280-24L280-24Q278-24 275-22L275-22Q272-19 272-18L272-18Q272-17 275-17L275-17Q276-17 279-19Q282-21 282-22L282-22Q282-24 280-24ZM263-11L263-11Q263-16 268-22L268-22Q274-27 281-27L281-27Q284-27 286-26L286-26Q288-24 288-22L288-22Q288-20 283-17Q279-14 275-14L275-14Q270-14 268-15L268-15Q266-13 266-11L266-11Q266-8 268-6L268-6Q270-4 272-4L272-4Q273-4 274-5L274-5Q276-6 276-6L276-6Q277-6 277-6L277-6Q278-6 278-5L278-5Q278-4 276-2Q275-1 273-0L273-0Q269-0 266-4L266-4Q263-7 263-11ZM303-53L303-53Q303-53 303-54L303-54Q303-55 304-56L304-56Q304-57 304-57L304-57Q304-57 305-57L305-57Q306-57 306-57L306-57Q307-55 307-53L307-53Q307-50 306-47L306-47L304-41Q303-37 302-35L302-35L301-30Q305-30 306-30L306-30Q309-30 309-29L309-29Q309-28 309-28L309-28Q308-28 307-27L307-27Q306-27 305-27L305-27Q303-27 302-27L302-27Q301-27 300-27L300-27Q299-24 298-20L298-20Q296-15 296-13L296-13Q295-10 295-7L295-7Q295-6 295-4L295-4Q296-3 296-2L296-2Q296-1 295-1L295-1Q295-1 294-1L294-1Q293-1 292-3L292-3Q291-5 291-7L291-7Q291-11 292-14L292-14Q293-17 294-20L294-20Q295-24 296-27L296-27L294-27Q293-27 292-27L292-27Q292-27 291-27L291-27Q291-28 291-28L291-28Q291-29 292-29L292-29Q293-30 293-30L293-30Q294-30 295-30L295-30Q296-30 297-30L297-30L298-33Q299-36 299-37L299-37Q300-40 300-41L300-41Q303-50 303-53Z" fill="currentColor"/>
</svg>